<svg xmlns="http://www.w3.org/2000/svg"  viewBox="0 0 16 16" width="32px" height="32px"><circle cx="5.5" cy="8.5" r="5.5" fill="#fe3155"/><ellipse cx="8" cy="8.5" fill="#fe3155" rx="3" ry="4.895"/><path fill="#fedb29" d="M10.5,3C9.599,3,8.751,3.221,8,3.605C7.329,3.948,6.739,4.425,6.262,5h3.476 c0.48,0.579,0.841,1.257,1.052,2H5.21C5.075,7.477,5,7.979,5,8.5C5,8.67,5.02,8.834,5.036,9h5.929c-0.065,0.718-0.273,1.39-0.587,2 H5.615C6.143,12.025,6.973,12.869,8,13.395C8.751,13.779,9.599,14,10.5,14c3.038,0,5.5-2.462,5.5-5.5C16,5.462,13.538,3,10.5,3z"/></svg>